<?xml version="1.0" standalone="no"?>
<!DOCTYPE svg PUBLIC "-//W3C//DTD SVG 20010904//EN"
 "http://www.w3.org/TR/2001/REC-SVG-20010904/DTD/svg10.dtd">
<svg version="1.0" xmlns="http://www.w3.org/2000/svg"
 width="512.000000pt" height="512.000000pt" viewBox="0 0 512.000000 512.000000"
 preserveAspectRatio="xMidYMid meet">
<metadata>
Created by potrace 1.16, written by Peter Selinger 2001-2019
</metadata>
<g transform="translate(0.000000,512.000000) scale(0.100000,-0.100000)"
fill="#000000" stroke="none">
<path d="M442 4954 c3 -165 3 -166 29 -189 17 -13 63 -31 120 -45 52 -12 166
-44 254 -70 88 -27 212 -62 275 -80 67 -18 121 -39 130 -49 15 -18 138 -56
173 -53 9 0 50 21 90 46 81 50 217 101 310 116 51 8 70 7 104 -6 49 -19 44 -7
93 -231 49 -225 67 -268 182 -439 74 -110 91 -124 157 -124 29 0 57 -12 117
-52 106 -69 151 -88 230 -95 65 -6 66 -7 60 -32 -3 -14 -11 -73 -18 -131 -6
-58 -13 -107 -14 -109 -8 -10 -140 -31 -224 -36 -52 -3 -107 -10 -122 -16 -31
-12 -109 -2 -237 32 -97 25 -165 25 -183 1 -7 -11 -29 -24 -48 -31 -52 -17
-102 -62 -135 -122 -23 -44 -30 -69 -33 -137 -4 -77 -2 -87 28 -148 45 -92
122 -146 229 -160 158 -21 323 126 325 288 1 56 4 65 31 90 21 19 41 27 65 27
55 0 299 -34 307 -42 4 -5 -1 -63 -10 -130 -22 -158 -22 -170 9 -206 33 -39
26 -66 -18 -69 -36 -3 -64 -24 -74 -56 -4 -11 -15 -27 -25 -34 -11 -7 -19 -25
-19 -40 0 -19 -7 -30 -22 -37 -14 -6 -24 -21 -26 -37 -2 -19 -11 -29 -33 -37
-16 -5 -29 -15 -29 -21 0 -6 -9 -14 -19 -18 -31 -11 -275 -246 -325 -313 -60
-80 -63 -96 -33 -164 l26 -55 -57 -39 c-95 -65 -104 -78 -112 -174 -9 -94 -21
-123 -83 -199 -90 -111 -156 -207 -222 -323 -97 -171 -179 -290 -246 -356
l-57 -56 -21 21 c-34 33 -55 12 -61 -62 -6 -78 -17 -89 -68 -74 -47 14 -55 15
-48 3 3 -5 22 -12 41 -15 19 -4 35 -10 35 -14 0 -4 -28 -18 -62 -30 -92 -34
-95 -36 -189 -80 -110 -53 -169 -112 -169 -171 0 -52 47 -102 114 -121 72 -20
220 -8 293 23 40 18 83 27 139 30 90 5 168 33 206 74 21 23 23 32 23 146 l0
122 41 60 c75 109 163 205 272 297 141 119 174 164 213 292 66 221 109 285
258 386 64 43 65 43 109 31 43 -11 47 -11 96 22 80 52 81 52 81 -7 0 -40 -7
-61 -29 -96 -43 -66 -66 -133 -66 -195 0 -170 75 -266 230 -293 36 -7 86 -28
145 -63 160 -94 227 -126 396 -192 218 -85 259 -105 266 -125 3 -9 23 -35 45
-58 l39 -40 -26 -12 c-32 -15 -28 -32 9 -51 20 -9 25 -16 17 -24 -15 -15 -14
-34 3 -40 10 -4 13 -1 10 7 -3 7 2 19 11 26 15 13 16 7 10 -61 -4 -42 -18
-100 -32 -134 -57 -137 -66 -169 -59 -208 15 -78 75 -85 185 -20 120 71 221
182 221 241 0 11 25 50 55 88 93 116 124 200 94 255 -5 11 -65 47 -132 80 -67
33 -126 64 -131 69 -6 6 -22 10 -37 10 -14 0 -37 8 -50 19 -13 10 -46 30 -74
44 -27 14 -102 61 -165 104 -105 72 -117 83 -143 136 -51 105 -138 172 -304
233 -57 21 -103 42 -103 46 0 5 9 6 21 3 37 -12 90 -7 109 10 10 9 23 37 29
62 15 60 30 87 111 210 37 56 76 125 85 155 10 29 34 71 56 94 52 58 68 94 90
198 25 121 24 254 -1 326 -28 80 -26 133 6 165 25 26 26 29 20 105 -7 73 -5
86 28 182 27 79 41 149 61 298 14 107 33 236 42 285 26 147 17 390 -17 480
-13 35 -166 145 -201 145 -60 0 -47 40 26 75 108 51 150 108 148 205 -1 86
-48 171 -119 218 -29 19 -68 35 -78 33 -4 -1 -13 2 -20 6 -6 5 -18 8 -26 7 -8
-1 -22 -2 -31 -3 -31 -2 -186 -117 -174 -129 2 -3 20 9 40 27 19 17 47 34 60
37 29 7 76 -10 99 -35 14 -16 13 -18 -14 -35 -34 -19 -37 -36 -14 -71 9 -14
14 -36 12 -50 -3 -13 -1 -22 4 -19 15 10 78 -17 89 -38 9 -16 7 -26 -8 -47
-25 -33 -90 -42 -110 -15 -12 17 -14 16 -35 -3 -17 -15 -43 -22 -93 -27 -38
-3 -83 -9 -100 -12 l-30 -7 30 33 c17 18 24 30 18 26 -8 -4 -13 -1 -13 8 0 8
-12 24 -27 37 l-28 22 27 -5 c33 -6 49 10 41 40 -7 30 -33 29 -26 0 4 -22 4
-23 -11 -4 -9 11 -16 23 -16 27 0 9 73 38 81 33 4 -2 3 -19 -1 -38 -6 -28 -5
-33 7 -29 7 3 11 13 8 23 -7 22 41 46 60 30 7 -6 20 -8 29 -5 9 3 23 7 31 10
30 9 -21 75 -57 75 -28 0 -58 -28 -51 -47 4 -11 2 -14 -8 -11 -8 3 -14 18 -14
36 0 16 -3 28 -7 25 -5 -2 -8 -15 -8 -29 0 -18 -9 -28 -37 -42 -30 -13 -38
-23 -38 -44 -1 -14 -7 -33 -13 -41 -10 -12 -10 -17 -1 -23 9 -5 6 -10 -10 -16
-12 -4 -19 -12 -16 -18 3 -5 0 -10 -7 -10 -7 0 -2 -10 12 -21 14 -11 18 -19
10 -16 -12 3 -50 -40 -50 -58 0 -13 47 -44 76 -49 38 -8 44 -15 49 -57 4 -25
0 -32 -23 -41 -15 -7 -41 -25 -59 -41 -27 -25 -39 -29 -83 -28 -28 0 -55 3
-60 6 -13 8 -111 -14 -156 -35 l-41 -20 -54 25 c-30 14 -67 25 -84 25 -46 0
-57 12 -53 59 l3 43 49 -46 c54 -51 71 -51 61 1 l-6 34 40 -23 c42 -24 63 -19
44 11 -20 32 -36 104 -38 176 -3 88 -3 87 -14 81 -5 -4 -7 3 -4 14 8 32 23 34
24 3 1 -25 3 -23 24 22 13 28 25 64 27 80 2 17 6 32 9 35 16 12 99 194 99 216
0 32 -54 90 -109 119 -126 63 -320 94 -476 76 -164 -19 -264 -73 -285 -152
l-11 -39 -81 0 c-49 0 -78 4 -73 9 6 5 69 53 140 106 139 104 273 215 274 228
1 4 -20 7 -45 7 -42 0 -52 -6 -132 -73 -137 -115 -402 -319 -557 -429 -67 -47
-73 -50 -79 -39 -3 5 65 62 152 127 148 112 404 315 482 383 l35 30 -66 1
c-54 0 -69 -4 -85 -21 -19 -21 -408 -323 -458 -354 -25 -16 -28 -17 -25 -3 2
9 99 92 214 183 269 214 251 195 187 195 -51 0 -52 -1 -52 -30 0 -25 -14 -41
-90 -106 -50 -43 -114 -95 -143 -116 l-52 -39 -3 42 c-2 28 1 45 10 50 7 4 48
35 91 69 69 55 77 65 77 96 0 19 -4 34 -10 34 -5 0 -10 -15 -10 -33 0 -28 -9
-39 -70 -87 -84 -65 -87 -67 -94 -42 -6 18 -86 52 -122 52 -10 0 -14 15 -14
55 l0 55 -35 0 -35 0 -1 -62 c0 -59 -3 -65 -35 -91 l-34 -29 0 91 c0 90 0 91
-25 91 -25 0 -25 -1 -25 -91 0 -82 2 -91 20 -96 13 -4 20 -14 20 -30 0 -20 -4
-24 -17 -18 -10 4 -101 35 -203 70 -178 60 -250 89 -250 101 0 8 -6 9 199 -55
91 -28 167 -49 170 -46 3 3 5 40 6 83 l0 77 -272 3 -273 2 0 -93 c0 -67 4 -99
15 -114 16 -22 118 -58 590 -203 110 -34 204 -65 208 -69 4 -4 5 -15 2 -23 -5
-12 -13 -14 -33 -8 -114 34 -522 158 -631 192 -92 29 -142 50 -162 69 -29 27
-29 29 -29 138 l0 111 -56 0 -56 0 4 -166z m868 -51 c-9 -15 -10 -13 -7 15 5
45 -10 40 -33 -10 -14 -31 -20 -37 -20 -21 0 12 15 39 33 59 l32 38 3 -32 c2
-17 -2 -40 -8 -49z m1295 17 c44 -12 85 -22 90 -23 6 0 17 -7 25 -16 13 -13
12 -14 -5 -7 -125 50 -356 77 -484 57 -86 -13 -108 -8 -29 8 89 17 310 7 403
-19z m-490 -49 c-3 -6 -11 -8 -17 -5 -6 4 -5 9 3 15 16 10 23 4 14 -10z m261
-38 c-19 -26 -45 -58 -58 -71 -23 -21 -25 -21 -40 -5 -14 17 -68 108 -68 115
0 2 45 4 101 6 l100 3 -35 -48z m112 31 c13 -4 21 -12 18 -18 -3 -6 -18 -42
-34 -80 l-28 -70 -60 3 c-35 1 -65 8 -74 17 -10 10 -11 14 -2 14 7 0 10 5 7
10 -3 6 -2 10 4 10 5 0 31 27 56 60 47 61 61 68 113 54z m-246 -75 c46 -71 51
-86 37 -108 -9 -14 -10 -14 -5 1 7 23 -16 39 -58 41 -20 1 -36 5 -36 10 0 4
-6 7 -14 7 -8 0 -17 15 -20 36 -4 19 -9 41 -12 48 -3 8 8 17 28 23 18 5 34 9
35 8 2 -1 22 -30 45 -66z m358 60 c27 -6 50 -14 50 -17 0 -4 -15 -34 -34 -67
l-33 -60 -61 -3 c-34 -2 -62 0 -62 3 0 17 70 155 79 155 5 0 33 -5 61 -11z
m220 -36 l25 -28 -35 30 c-55 47 -56 48 -35 37 11 -6 31 -23 45 -39z m-694
-10 c3 -16 7 -34 10 -40 4 -16 1 -16 -43 2 l-36 15 23 25 c30 32 38 31 46 -2z
m633 -12 l24 -18 -24 -17 c-14 -8 -38 -18 -55 -22 l-29 -6 3 50 c4 50 4 50 30
41 15 -5 38 -18 51 -28z m-93 -36 c-5 -26 -12 -34 -34 -38 -15 -3 -28 -4 -29
-3 -1 1 12 26 30 55 33 54 45 50 33 -14z m162 -43 c-12 -20 -22 -41 -20 -45 1
-5 -3 -5 -9 -1 -7 4 -10 2 -7 -7 7 -18 -17 -65 -53 -107 -16 -18 -32 -44 -35
-57 -3 -14 -10 -22 -15 -19 -5 3 -9 -6 -9 -20 0 -14 -4 -26 -8 -26 -5 0 -14
-18 -21 -40 -11 -37 -31 -47 -31 -15 0 12 61 127 80 150 5 6 11 27 15 48 4 20
12 40 17 43 7 4 8 -6 3 -27 l-7 -34 26 37 c29 41 33 57 11 38 -12 -10 -16 -9
-21 3 -12 32 0 62 24 62 29 0 72 40 73 69 1 17 2 17 6 3 2 -9 -6 -34 -19 -55z
m-48 32 c0 -8 -4 -12 -10 -9 -5 3 -10 -2 -11 -12 0 -11 -3 -13 -6 -5 -2 6 -9
9 -14 6 -20 -12 -69 -23 -64 -13 4 5 14 9 23 9 9 0 31 9 47 19 37 24 35 24 35
5z m-739 -41 c18 -21 32 -43 27 -43 -2 0 -22 19 -43 41 -22 23 -31 37 -20 31
11 -6 27 -18 36 -29z m120 -78 c11 -76 37 -172 39 -140 0 6 9 -3 19 -20 16
-26 17 -33 5 -52 -15 -24 -10 -47 15 -77 15 -18 15 -18 -9 -12 -14 4 -20 4
-13 -1 8 -6 8 -13 -3 -27 -19 -26 -27 -15 -14 19 13 33 1 75 -40 150 -15 28
-35 77 -45 110 -9 33 -25 76 -36 97 -25 49 -24 51 11 18 21 -20 33 -43 40 -78
10 -53 69 -216 76 -210 2 3 -10 40 -27 84 -24 60 -32 100 -35 164 -5 102 0 95
17 -25z m456 69 c-3 -3 -12 -4 -19 -1 -8 3 -5 6 6 6 11 1 17 -2 13 -5z m-119
-11 c-10 -2 -26 -2 -35 0 -10 3 -2 5 17 5 19 0 27 -2 18 -5z m-303 -43 c9 -16
11 -30 6 -30 -16 0 -1 -32 32 -67 25 -26 29 -37 24 -65 -5 -29 -5 -30 5 -10
14 28 21 28 38 -3 10 -19 11 -30 2 -50 -15 -32 -26 -26 -54 28 -11 23 -32 57
-46 75 -13 17 -22 32 -19 32 3 0 2 14 -3 30 -6 20 -5 30 2 30 7 0 7 4 1 13
-16 20 -23 47 -13 47 5 0 16 -13 25 -30z m252 8 c-3 -8 -6 -5 -6 6 -1 11 2 17
5 13 3 -3 4 -12 1 -19z m159 2 c19 0 34 -4 34 -9 0 -5 -28 -33 -61 -62 -67
-58 -67 -59 -31 44 9 27 18 44 20 38 2 -6 19 -11 38 -11z m124 6 c0 -6 -6 -20
-13 -31 -7 -11 -14 -33 -16 -49 -4 -36 -26 -63 -35 -41 -3 8 -1 17 4 20 6 3
15 16 21 28 12 21 11 22 -8 4 -19 -16 -21 -16 -27 -2 -3 9 -6 31 -6 48 0 30 2
32 40 34 25 0 40 -3 40 -11z m-425 -16 c43 0 57 -32 27 -62 -19 -19 -19 -19
-46 25 -14 25 -26 49 -25 54 0 4 3 2 6 -4 2 -7 20 -13 38 -13z m-44 -24 c31
-36 44 -75 30 -89 -10 -9 -19 -5 -42 21 -16 18 -27 37 -23 43 3 5 -2 21 -11
35 -16 25 -16 26 6 19 13 -4 31 -17 40 -29z m159 7 c0 -7 -32 -32 -41 -33 -3
0 -10 10 -16 23 -10 22 -9 22 23 19 19 -2 34 -7 34 -9z m109 -15 c-6 -18 -13
-39 -15 -47 -3 -10 -14 -5 -39 19 -42 41 -43 47 -7 53 70 11 72 10 61 -25z
m77 -95 c-23 -29 -43 -53 -47 -53 -3 0 -11 12 -18 27 -12 26 -10 30 41 79 l53
52 6 -26 c4 -21 -4 -39 -35 -79z m-132 54 c28 -35 29 -38 13 -54 -16 -16 -19
-15 -57 22 -37 37 -39 40 -23 57 21 24 30 20 67 -25z m-60 -36 l49 -49 -21
-29 c-36 -51 -60 -67 -77 -53 -8 7 -15 19 -15 26 0 8 -5 14 -10 14 -6 0 -1 18
10 40 11 21 20 43 20 47 -1 4 -10 -10 -22 -31 l-20 -40 -18 24 c-18 24 -18 25
12 62 16 21 33 38 37 38 4 0 29 -22 55 -49z m887 22 c13 -15 11 -16 -11 -10
-14 4 -34 7 -45 7 -17 0 -17 2 -5 10 23 15 46 12 61 -7z m-641 -45 c0 -25 -3
-29 -10 -18 -8 12 -10 9 -10 -12 0 -15 -5 -30 -11 -33 -6 -4 -8 -13 -5 -21 3
-7 1 -16 -4 -19 -11 -7 -40 23 -40 42 0 16 59 91 73 92 4 1 7 -14 7 -31z m66
-43 c-13 -35 -15 -37 -15 -13 -1 33 21 90 26 68 2 -9 -3 -33 -11 -55z m-193
10 c19 -40 11 -44 -27 -14 -21 17 -24 24 -15 35 17 21 24 18 42 -21z m-14 -66
c-15 -29 -26 -30 -43 -4 -9 14 -21 23 -27 20 -5 -4 -1 -17 11 -32 24 -31 25
-42 2 -69 l-17 -21 -28 33 -28 33 43 48 43 49 27 -19 c21 -16 25 -24 17 -38z
m-369 -204 c5 3 18 -25 30 -62 12 -38 33 -85 46 -105 23 -36 23 -43 -1 -38 -5
1 7 -16 28 -37 20 -21 37 -44 37 -50 0 -16 58 -34 86 -27 17 4 48 -8 113 -46
85 -49 190 -90 232 -90 10 0 19 -4 19 -10 0 -16 -70 -11 -126 8 -29 10 -81 37
-117 61 -51 33 -80 44 -132 52 -37 5 -73 13 -81 17 -15 8 -124 174 -159 242
-26 51 -65 165 -65 189 1 13 4 12 16 -4 15 -19 15 -19 9 10 -4 17 -11 46 -16
65 -22 85 -4 55 33 -57 22 -68 44 -120 48 -118z m440 192 c0 -4 14 -26 30 -49
17 -22 30 -48 29 -57 0 -10 -5 -7 -12 9 -11 24 -20 37 -43 63 -24 28 -44 64
-38 70 7 7 33 -21 34 -36z m-220 -32 c0 -4 -9 -18 -19 -31 -16 -20 -20 -21
-25 -8 -3 8 -1 24 4 34 16 30 11 46 -6 21 -23 -33 -41 -11 -19 23 l17 25 24
-28 c13 -16 24 -32 24 -36z m-100 10 c24 -38 21 -76 -4 -56 -8 6 -16 22 -19
34 -2 12 -8 30 -12 40 -13 31 13 18 35 -18z m294 10 c15 -23 15 -28 1 -55 -9
-17 -20 -28 -26 -25 -5 4 -7 10 -4 14 2 5 -3 17 -11 27 -9 10 -12 13 -8 5 5
-9 3 -12 -5 -7 -8 5 -7 15 6 37 21 35 26 36 47 4z m565 -11 c2 -2 2 -6 0 -9
-8 -7 -49 7 -49 17 0 8 38 2 49 -8z m-446 -51 c6 -50 -2 -55 -25 -15 -12 20
-13 32 -5 50 13 29 23 18 30 -35z m-262 -47 l-14 -24 -23 28 c-27 32 -29 41
-12 58 10 10 18 7 37 -12 22 -23 23 -28 12 -50z m109 13 c0 -4 -8 -17 -19 -30
l-18 -23 -17 26 c-16 25 -16 28 0 53 l18 27 18 -24 c9 -12 18 -26 18 -29z m74
36 c3 -8 -1 -30 -9 -49 -17 -40 -18 -49 -7 -42 4 2 8 -3 8 -12 1 -9 5 -26 9
-36 6 -15 5 -17 -5 -11 -9 5 -11 4 -6 -3 4 -7 4 -17 1 -22 -9 -15 -37 3 -67
42 l-26 34 25 29 25 30 -5 -44 c-4 -32 -1 -48 11 -61 16 -17 17 -17 18 16 0
25 -3 31 -11 24 -9 -8 -11 -4 -7 15 2 14 8 22 13 19 13 -7 11 10 -1 22 -8 8
-7 19 1 37 14 30 24 34 33 12z m-439 -67 c20 -40 48 -89 63 -108 l26 -34 6 24
c4 14 1 49 -5 78 -7 28 -10 52 -7 52 3 0 1 5 -6 12 -14 14 -16 28 -4 28 11 0
29 -61 38 -128 4 -29 11 -55 15 -58 13 -8 11 50 -3 64 -9 9 -9 18 0 37 6 14 8
25 3 25 -4 0 -13 12 -20 28 l-11 27 19 -23 c20 -23 36 -16 25 11 -3 8 0 18 6
22 8 5 11 -2 9 -24 -3 -24 3 -37 33 -64 21 -19 39 -32 42 -30 2 3 -12 19 -32
37 -26 24 -33 38 -28 51 6 16 9 16 37 -11 16 -15 27 -34 25 -41 -3 -7 -1 -13
5 -13 6 0 9 -6 6 -14 -6 -14 78 -116 96 -116 6 0 1 11 -12 24 -19 20 -20 27
-10 50 15 31 20 32 37 5 9 -13 11 -32 6 -52 -4 -18 -7 -38 -5 -44 4 -24 -17
-13 -54 28 -20 22 -38 39 -39 37 -20 -22 -25 -49 -15 -72 13 -28 29 -26 29 5
0 23 8 24 31 3 17 -16 16 -17 -18 -35 -46 -23 -71 -26 -54 -5 10 12 6 21 -18
48 l-30 33 -2 -25 c-1 -14 -2 -31 -2 -38 1 -7 -15 6 -35 29 l-36 42 -12 -29
c-11 -26 -9 -33 19 -69 23 -29 25 -35 8 -20 -28 24 -93 106 -69 87 32 -25 29
7 -5 55 -34 48 -69 111 -87 158 -18 47 -2 25 35 -47z m1235 40 c-1 -7 -7 -24
-15 -38 -21 -37 -18 -49 4 -16 11 16 29 30 40 31 21 2 21 1 2 -72 -4 -13 -40
-45 -88 -77 l-82 -55 14 38 c18 52 41 97 79 153 31 47 46 59 46 36z m-770 -51
c0 -29 -1 -30 -16 -15 -10 10 -14 23 -9 37 9 30 25 16 25 -22z m-150 -41 c-5
-5 -10 -18 -10 -28 0 -22 -13 -23 -30 -3 -12 14 -11 24 5 70 6 18 5 18 -5 3
-6 -10 -15 -18 -21 -18 -5 0 -2 11 7 25 l17 25 23 -32 c16 -21 21 -35 14 -42z
m216 -7 c12 -35 20 -65 19 -67 -6 -7 -88 48 -102 68 -15 22 -15 22 8 10 13 -7
35 -22 48 -34 l23 -21 -7 25 c-4 14 -12 32 -17 40 -7 12 -8 10 -3 -5 3 -11 3
-16 -2 -12 -4 5 -8 22 -9 38 -3 50 19 28 42 -42z m561 -87 c-16 -47 -30 -68
-53 -83 l-31 -19 14 47 c22 70 44 110 67 121 12 5 22 7 23 3 2 -3 -7 -34 -20
-69z m304 25 c24 -18 57 -41 72 -51 29 -18 58 -71 56 -103 -1 -10 -6 -1 -11
20 -10 38 -46 73 -132 131 -31 21 -47 25 -70 20 -56 -12 -103 -42 -153 -99
-73 -82 -97 -136 -96 -218 0 -80 -11 -77 -26 8 l-10 60 4 -72 c7 -96 0 -112
-32 -77 -20 22 -27 24 -34 13 -7 -11 -9 -11 -9 4 0 9 -2 17 -4 17 -2 0 -11 3
-19 6 -11 4 -19 -12 -32 -73 -18 -83 -34 -124 -35 -88 0 11 7 47 15 80 17 73
18 85 5 85 -12 0 -11 2 -41 -98 -12 -40 -24 -71 -26 -68 -3 3 2 39 12 81 9 42
15 79 12 81 -10 11 -37 -10 -38 -30 0 -26 -37 -137 -38 -117 -1 8 6 41 15 73
17 60 15 76 -8 62 -7 -5 -19 -9 -26 -10 -7 -1 -31 -13 -55 -27 -35 -21 -44
-33 -55 -71 -14 -55 -16 -166 -2 -166 5 0 20 16 32 35 13 19 28 35 34 35 6 0
16 10 23 23 7 14 10 15 6 3 -4 -14 -2 -17 12 -11 33 14 163 1 163 -16 0 -5 -7
-12 -15 -15 -8 -4 -20 -26 -26 -49 -8 -30 -17 -45 -32 -49 -12 -3 -22 -4 -24
-2 -2 2 4 22 12 46 l15 43 -57 -7 c-72 -8 -108 -26 -108 -51 0 -21 6 -21 59
-9 26 6 27 5 17 -14 -11 -20 -43 -33 -119 -48 l-32 -6 0 53 c0 59 20 179 45
274 22 84 92 186 165 239 32 24 56 47 52 51 -4 5 -2 5 5 1 9 -5 8 -13 -3 -34
-20 -38 -15 -79 12 -111 2 -2 20 10 41 26 21 17 63 45 93 64 30 18 64 41 74
51 11 10 25 17 30 16 6 -2 32 18 58 43 89 88 156 101 229 46z m-916 -46 c-4
-3 -15 5 -25 19 -14 19 -16 28 -7 39 9 11 14 8 25 -19 7 -18 10 -35 7 -39z
m841 19 c15 -6 42 -27 61 -46 18 -20 33 -30 33 -23 0 28 60 -47 76 -94 15 -44
20 -145 15 -266 -2 -50 -23 -25 -25 28 -1 43 -5 48 -24 29 -18 -18 -14 -2 13
52 14 27 25 59 25 71 0 21 -1 21 -20 -3 -28 -36 -105 -83 -202 -124 l-83 -35
55 5 c30 2 71 8 90 11 l35 7 -26 -28 c-14 -16 -42 -51 -61 -79 -20 -27 -53
-66 -73 -85 -21 -19 -48 -59 -62 -89 -26 -59 -121 -205 -159 -246 -14 -16 -31
-24 -40 -21 -23 9 -233 28 -243 22 -12 -8 -292 15 -316 25 -12 6 16 6 70 2 50
-5 183 -8 297 -8 206 1 207 1 234 25 34 33 71 87 126 185 24 44 53 93 63 109
l19 29 -24 -7 c-14 -4 -46 -18 -72 -30 -26 -12 -45 -19 -42 -14 12 20 -16 6
-34 -17 -11 -13 -22 -22 -24 -19 -3 2 -11 -2 -18 -11 -7 -8 -18 -15 -25 -15
-6 0 -25 -11 -41 -25 -15 -13 -41 -27 -57 -31 -23 -5 -27 -8 -16 -16 11 -7 9
-8 -5 -4 -39 13 -163 19 -182 8 -15 -8 -7 -11 41 -17 33 -4 92 -13 130 -21 93
-19 111 -18 135 6 28 28 25 48 -3 22 -25 -23 -62 -28 -87 -12 -12 8 -11 10 8
10 37 0 76 25 116 74 21 26 42 44 47 40 5 -3 34 8 64 25 30 17 58 31 61 31 4
0 -17 -26 -47 -57 -30 -32 -78 -86 -107 -119 -64 -74 -83 -81 -262 -88 -69 -3
-184 -9 -256 -12 -72 -4 -143 -4 -158 0 -24 6 -27 11 -24 44 l3 37 60 9 c33 4
119 22 190 38 72 16 172 38 224 49 102 21 168 46 190 73 23 28 6 29 -48 2 -28
-15 -51 -24 -51 -20 0 3 17 38 37 76 48 91 121 171 182 198 l48 22 -1 87 c0
106 26 175 82 215 41 29 49 30 88 16z m-396 -47 c-31 -49 -39 -100 -18 -121 9
-9 8 -12 -4 -12 -40 0 -33 76 13 139 40 56 45 52 9 -6z m76 -17 c-5 -30 -15
-51 -29 -61 -32 -23 -57 -19 -56 8 0 12 3 16 6 10 2 -7 15 -13 27 -13 19 0 25
8 35 56 15 65 26 65 17 0z m-529 -10 c50 -18 136 -78 158 -112 9 -14 13 -33
10 -44 -7 -22 -30 -27 -41 -9 -3 6 -18 8 -33 5 -17 -4 -21 -3 -13 2 11 8 11
10 -2 15 -9 4 -16 2 -16 -3 0 -17 -25 -11 -106 26 -43 20 -97 54 -118 75 l-39
37 44 10 c65 14 111 14 156 -2z m323 4 c0 -5 -7 -10 -16 -10 -8 0 -39 -24 -67
-52 l-52 -53 -33 37 -33 37 33 17 c58 30 168 46 168 24z m40 -14 c0 -2 -21
-16 -46 -31 -25 -15 -60 -47 -77 -71 -39 -56 -48 -49 -13 10 15 26 44 56 69
70 38 23 67 33 67 22z m-735 -46 c3 -6 -1 -7 -9 -4 -18 7 -21 14 -7 14 6 0 13
-4 16 -10z m1432 -72 c-2 -13 -4 -5 -4 17 -1 22 1 32 4 23 2 -10 2 -28 0 -40z
m-428 -35 c0 -55 -2 -64 -11 -46 -10 20 -3 113 8 113 2 0 4 -30 3 -67z m438
-75 c-2 -18 -4 -6 -4 27 0 33 2 48 4 33 2 -15 2 -42 0 -60z m-793 -72 c-3 -15
-8 -25 -11 -23 -2 3 -1 17 3 31 3 15 8 25 11 23 2 -3 1 -17 -3 -31z m217 -33
c-9 -15 -10 -12 -10 17 0 29 1 32 10 18 7 -12 7 -24 0 -35z m409 -30 c-32 -99
-95 -198 -177 -279 l-82 -81 9 -39 c14 -60 11 -64 -10 -10 l-19 49 90 100 c73
82 99 120 140 205 49 103 73 130 49 55z m-673 -10 c-3 -10 -5 -4 -5 12 0 17 2
24 5 18 2 -7 2 -21 0 -30z m33 17 c0 -5 -5 -10 -11 -10 -5 0 -7 5 -4 10 3 6 8
10 11 10 2 0 4 -4 4 -10z m786 -54 c-18 -48 -75 -106 -104 -106 -11 0 -7 6 14
19 38 23 70 62 86 107 6 18 14 31 16 29 3 -3 -3 -25 -12 -49z m-599 7 c-3 -10
-5 -4 -5 12 0 17 2 24 5 18 2 -7 2 -21 0 -30z m-254 -5 c-3 -18 -10 -37 -15
-43 -10 -10 -2 50 9 68 9 16 12 5 6 -25z m843 -134 c-8 -49 -18 -118 -21 -154
-11 -110 -34 -235 -54 -291 -11 -30 -28 -77 -38 -105 l-19 -51 -23 39 -22 40
56 139 c31 77 55 142 53 144 -2 2 -33 -54 -69 -123 -59 -113 -88 -155 -86
-119 1 7 -2 28 -7 48 -10 49 26 231 65 325 27 64 33 72 67 82 l37 11 -35 -6
c-31 -5 -33 -4 -21 11 7 9 20 16 29 16 22 0 80 47 87 71 15 46 15 6 1 -77z
m-233 -91 c3 -5 -8 -57 -24 -118 -32 -119 -32 -153 0 -234 27 -67 61 -184 61
-208 0 -18 -17 -33 -38 -33 -4 0 -7 39 -8 88 -1 68 -7 102 -27 158 -33 89 -34
131 -2 241 14 48 23 93 21 100 -6 14 10 18 17 6z m-1333 -13 c11 -7 -3 -10
-45 -10 -33 0 -67 5 -75 10 -11 7 3 10 45 10 33 0 67 -5 75 -10z m135 -32 c17
-4 47 -9 67 -13 l37 -6 -1 -50 c-1 -53 -9 -62 -67 -80 -21 -6 -22 -7 -6 -8 11
-1 32 6 48 13 23 13 27 13 27 1 0 -27 -37 -37 -95 -25 -30 6 -57 15 -60 20 -3
5 12 23 32 41 l38 32 -60 -33 c-33 -17 -79 -50 -102 -73 -24 -22 -45 -38 -48
-35 -3 3 24 33 60 66 35 34 61 63 57 66 -12 7 -132 -25 -132 -35 0 -5 -7 -9
-15 -9 -31 0 -13 17 50 48 37 18 64 36 60 41 -6 11 -45 2 -45 -11 0 -5 -4 -6
-10 -3 -16 10 -12 21 13 34 41 21 -114 2 -160 -20 -40 -19 -63 -19 -63 0 0 5
20 17 43 27 36 16 68 19 173 18 71 0 143 -3 159 -6z m171 -20 c-3 -13 -6 -31
-6 -40 0 -10 -4 -18 -10 -18 -11 0 -13 39 -4 64 9 25 27 19 20 -6z m-536 -80
c0 -10 -7 -18 -15 -18 -8 0 -30 -14 -50 -31 -19 -17 -35 -28 -35 -25 0 18 34
83 53 104 20 22 22 22 34 6 7 -10 13 -26 13 -36z m168 47 c-3 -3 -31 -12 -63
-21 -33 -8 -65 -20 -72 -26 -7 -6 -16 -8 -20 -4 -9 9 26 34 62 45 32 10 102
14 93 6z m1197 -77 c4 -18 25 -77 47 -131 24 -60 38 -110 36 -129 -3 -27 -8
-21 -49 63 -26 52 -52 111 -58 132 -17 51 -35 49 -27 -4 8 -49 44 -122 102
-208 24 -35 44 -73 44 -84 0 -19 -4 -17 -36 14 -20 18 -62 74 -95 123 -32 49
-59 85 -59 80 0 -18 89 -160 139 -221 28 -35 49 -63 47 -63 -2 0 -23 7 -46 15
-53 19 -102 19 -205 0 -44 -8 -126 -14 -182 -15 -100 0 -103 1 -138 31 -41 37
-43 53 -20 205 8 54 16 106 16 114 1 8 5 -30 9 -85 4 -56 15 -115 24 -135 13
-29 15 -31 11 -8 -6 31 -25 205 -25 231 0 26 38 22 42 -5 4 -33 34 -35 42 -4
5 19 13 26 31 26 22 0 25 -3 19 -25 -6 -24 -4 -25 40 -25 40 0 46 3 46 21 0
21 3 21 60 16 74 -8 97 2 135 58 17 25 33 45 37 45 3 0 10 -15 13 -32z m-1290
-8 c-8 -13 37 -30 78 -30 l31 0 -53 -54 c-55 -56 -99 -76 -165 -76 -41 0 -76
28 -76 62 0 12 17 38 40 59 32 31 49 39 87 42 27 2 52 4 56 5 5 1 5 -3 2 -8z
m229 -62 c22 -30 8 -44 -15 -14 -10 13 -19 27 -19 30 0 14 20 4 34 -16z m124
-20 c14 -14 16 -57 2 -78 -7 -12 -12 -12 -29 4 -11 10 -18 22 -16 26 3 4 -6
10 -19 12 l-23 5 23 -58 c25 -62 31 -94 14 -84 -5 3 -10 16 -10 28 0 13 -10
43 -22 67 l-23 45 25 22 c28 25 60 29 78 11z m-178 -50 c0 -6 -7 -5 -15 2 -8
7 -15 17 -15 22 0 6 7 5 15 -2 8 -7 15 -17 15 -22z m45 -8 c-3 -5 2 -32 11
-60 10 -31 14 -65 11 -87 -10 -61 -22 -56 -19 8 3 52 -11 119 -25 119 -3 0
-16 -9 -30 -20 -43 -34 -129 -60 -199 -60 -63 0 -125 17 -138 39 -4 5 10 3 31
-6 23 -10 67 -16 111 -16 68 0 80 3 160 45 103 54 95 50 87 38z m1360 -218
c42 -108 21 -178 -36 -121 -19 19 -20 23 -5 31 9 5 16 14 16 19 0 6 -6 7 -12
3 -9 -5 -9 -3 1 9 16 20 17 88 1 118 -7 12 -8 19 -2 15 6 -3 22 -37 37 -74z
m-633 -108 c-3 -19 -1 -25 7 -20 6 4 12 1 12 -6 1 -7 5 3 9 22 l7 35 3 -35 3
-35 7 35 7 35 2 -37 c1 -39 -4 -43 -46 -32 -17 5 -23 14 -23 35 0 16 4 29 9
29 4 0 6 -12 3 -26z m88 4 c0 -13 -5 -30 -10 -38 -7 -11 -10 -5 -10 23 0 20 5
37 10 37 6 0 10 -10 10 -22z m110 -9 c25 -6 57 -11 73 -11 24 -1 27 -5 27 -33
l0 -31 -52 8 c-29 4 -60 9 -68 9 -55 2 -70 11 -70 40 0 33 13 36 90 18z m-291
-24 c2 -3 -4 -15 -13 -27 -9 -13 -22 -32 -30 -43 -8 -11 -17 -31 -21 -45 -3
-14 13 5 37 41 24 36 49 64 56 61 19 -6 15 -18 -20 -59 -30 -36 -30 -36 14 6
36 33 51 42 67 36 21 -7 21 -8 -12 -48 -19 -23 -46 -62 -62 -87 l-27 -45 35
34 c20 19 53 58 74 87 36 51 63 68 63 41 0 -7 -7 -22 -15 -33 -16 -24 -68
-174 -62 -180 2 -2 23 45 46 106 25 64 48 110 56 110 10 0 11 -9 4 -37 -11
-52 -3 -54 12 -4 8 26 17 40 25 37 7 -3 59 -10 116 -16 82 -9 107 -16 121 -32
15 -18 17 -18 17 -3 0 14 6 16 37 10 21 -4 41 -9 45 -11 9 -6 10 -109 2 -141
-4 -13 -13 -23 -22 -23 -65 0 -336 -115 -376 -159 -9 -10 35 8 97 40 98 50
275 114 286 104 2 -2 -10 -28 -27 -57 -16 -29 -33 -71 -37 -93 -4 -22 -20 -66
-37 -98 -25 -45 -41 -63 -81 -85 -47 -26 -52 -32 -93 -127 -31 -71 -54 -109
-79 -130 -20 -17 -35 -39 -35 -52 0 -50 -6 -52 -87 -26 -42 13 -98 25 -125 26
-26 1 -48 4 -48 6 0 5 25 46 112 187 37 61 68 114 68 118 0 4 -18 29 -41 56
-28 33 -53 81 -79 152 -65 174 -110 275 -110 248 0 -14 16 -63 36 -110 59
-140 71 -173 78 -207 7 -30 4 -29 -61 36 -92 90 -193 161 -229 161 l-28 0 34
30 c38 31 68 38 89 18 11 -11 11 -9 2 9 -17 34 -14 71 8 78 13 4 21 17 23 38
2 24 8 33 26 35 17 3 22 10 22 31 0 47 36 63 105 48 22 -4 41 -10 44 -12z
m451 -25 c0 -25 -4 -30 -25 -30 -21 0 -25 5 -25 30 0 25 4 30 25 30 21 0 25
-5 25 -30z m81 -7 l2 -28 4 28 c4 25 33 40 33 17 0 -5 7 -7 15 -4 11 5 15 -1
15 -17 0 -45 -11 -50 -72 -38 -37 8 -58 17 -61 28 -7 28 4 41 34 41 25 0 29
-4 30 -27z m101 -134 c9 -73 -5 -134 -43 -190 -10 -14 -27 -58 -37 -98 -25
-91 -61 -137 -138 -175 -32 -16 -62 -34 -66 -40 -4 -6 -8 -40 -8 -76 -1 -69
-8 -86 -52 -114 -34 -22 -35 -17 -4 48 13 28 32 77 42 109 17 55 20 59 76 84
81 36 138 115 138 193 0 27 9 53 25 79 30 45 46 130 35 188 -4 24 -5 45 -2 48
15 15 28 -7 34 -56z m57 -74 c0 -33 -3 -65 -7 -72 -4 -6 -7 29 -7 78 0 48 3
81 7 71 4 -9 7 -44 7 -77z m39 45 c16 -52 26 -140 16 -140 -5 0 -8 -18 -6 -40
5 -51 -24 -192 -50 -244 -11 -23 -52 -71 -90 -109 -50 -48 -62 -64 -43 -57 24
9 26 8 19 -12 -12 -41 -44 -98 -109 -193 l-63 -95 -30 49 -30 48 56 39 57 39
3 68 3 68 70 45 c82 54 109 80 108 108 0 21 0 21 -9 0 -8 -21 -40 -39 -139
-80 l-55 -22 3 -57 c2 -42 -2 -62 -15 -76 -36 -40 -43 -11 -22 92 l12 58 68
31 c44 19 85 47 114 78 44 45 88 112 65 98 -20 -13 -12 25 13 57 13 18 31 46
41 62 15 26 12 25 -19 -9 -44 -48 -45 -42 -5 32 27 50 30 64 25 112 -3 30 -8
66 -12 80 -10 39 12 11 24 -30z m-993 -117 c57 -36 233 -218 241 -248 3 -14 4
-28 1 -32 -3 -3 -36 20 -73 52 -74 63 -131 101 -172 115 l-27 10 30 -22 c46
-35 138 -119 160 -147 l19 -24 -24 6 c-14 4 -50 9 -80 12 -30 3 -67 8 -82 10
-16 3 -28 0 -28 -5 0 -6 12 -10 26 -10 14 0 67 -7 116 -16 65 -12 98 -24 119
-42 17 -13 28 -26 26 -28 -2 -3 -39 2 -82 11 -122 23 -245 29 -280 14 l-30
-13 40 -3 c98 -6 355 -38 355 -44 0 -19 -80 -41 -166 -46 -52 -3 -94 -10 -94
-14 0 -9 40 -20 133 -39 60 -12 72 -25 35 -39 -31 -11 -90 -32 -108 -37 -10
-3 -31 17 -60 56 -91 126 -173 183 -323 225 -69 18 -77 23 -62 35 14 11 24 11
71 -4 31 -10 58 -15 61 -12 3 2 -24 13 -58 23 l-64 19 120 116 c66 64 129 125
140 136 24 25 63 20 120 -15z m-278 -328 c41 -14 94 -39 117 -54 84 -59 191
-190 180 -223 -5 -17 -4 -17 28 1 40 23 119 40 102 22 -6 -7 -41 -27 -78 -46
-48 -24 -66 -29 -66 -19 0 34 -56 120 -118 183 -80 81 -175 132 -258 139 -30
2 -57 8 -60 13 -11 18 80 8 153 -16z m14 -126 c55 -55 -32 -179 -148 -214 -20
-6 -23 -3 -23 24 0 17 -4 31 -9 31 -9 0 -26 -48 -22 -64 1 -5 -12 -26 -29 -47
-19 -25 -30 -49 -30 -70 0 -22 -9 -42 -27 -62 l-28 -28 83 34 82 35 -19 -26
c-10 -15 -31 -38 -46 -52 -59 -55 -130 -144 -130 -166 -1 -14 -34 -57 -89
-114 -47 -50 -105 -116 -126 -146 l-40 -54 -35 17 -35 17 51 95 c61 114 147
242 228 339 78 93 91 120 97 205 3 40 10 83 15 97 11 29 211 170 241 170 10 0
28 -10 39 -21z m874 -207 c-7 -8 -25 9 -25 24 0 22 -19 17 -57 -16 -18 -16
-38 -30 -43 -30 -20 0 5 33 54 70 l51 39 12 -42 c7 -23 10 -43 8 -45z m-292
17 c81 -27 88 -32 78 -47 -7 -11 -21 -9 -77 8 -39 12 -96 22 -131 22 -58 0
-62 2 -52 19 14 26 101 25 182 -2z m-675 -83 c-48 -44 -127 -90 -137 -80 -9 9
38 43 101 75 31 16 59 33 63 39 3 5 9 10 13 10 4 -1 -14 -20 -40 -44z m973
-17 c19 -28 38 -57 44 -65 5 -7 6 -16 2 -20 -3 -4 -32 16 -62 45 -31 28 -62
51 -68 51 -13 1 30 40 42 40 4 0 23 -23 42 -51z m-360 1 c57 -29 64 -56 45
-160 -8 -47 -18 -114 -21 -150 l-6 -65 33 -19 c19 -11 28 -21 20 -23 -21 -8
-63 26 -78 62 -17 40 -18 93 -4 131 6 15 8 29 6 31 -6 7 -41 -65 -50 -102 -10
-40 -24 -55 -52 -55 -50 0 -72 59 -25 70 l23 5 -23 20 c-13 12 -23 16 -26 9
-2 -6 -11 -20 -19 -30 -14 -18 -14 -18 -4 4 8 17 7 27 -5 44 -22 32 -19 82 10
142 50 106 94 127 176 86z m295 -16 c65 -48 95 -85 88 -108 -9 -32 -42 -56
-78 -56 l-31 0 43 20 c23 10 42 26 42 34 0 14 -116 126 -132 126 -4 0 -8 5 -8
11 0 15 39 1 76 -27z m-136 -104 c-14 -11 -29 -20 -35 -20 -5 0 1 9 15 20 14
11 30 20 35 20 6 0 -1 -9 -15 -20z m-821 -122 c-15 -46 -37 -115 -48 -154 -16
-55 -32 -84 -68 -124 -50 -56 -241 -215 -249 -207 -2 2 12 17 33 33 21 15 73
62 116 103 85 82 126 148 147 241 7 30 20 69 28 85 15 30 63 105 67 105 1 0
-11 -37 -26 -82z m981 -4 c100 -31 147 -54 214 -102 45 -33 106 -104 106 -123
0 -5 -38 16 -84 46 -110 72 -191 109 -296 136 -47 13 -87 24 -89 25 -2 2 4 15
13 29 11 17 23 24 34 21 9 -3 55 -17 102 -32z m-510 -14 c0 -13 -1 -13 -10 0
-5 8 -10 22 -10 30 0 13 1 13 10 0 5 -8 10 -22 10 -30z m342 7 l-4 -33 94 -22
c122 -30 228 -85 399 -207 133 -94 140 -101 135 -128 -4 -17 -2 -26 4 -22 6 3
10 13 10 21 0 21 8 18 85 -34 75 -50 86 -72 63 -116 l-13 -25 -60 40 c-47 31
-59 44 -57 62 2 21 2 21 -12 -3 -9 -14 -15 -27 -16 -31 0 -3 28 -25 62 -49 57
-40 60 -44 43 -56 -28 -21 -60 -17 -123 15 -31 15 -78 36 -105 46 l-47 18 48
51 c40 42 72 101 60 111 -2 1 -35 22 -75 48 -88 56 -179 89 -308 112 -94 17
-140 34 -192 71 -31 22 -29 3 2 -35 21 -24 52 -38 168 -75 144 -46 389 -135
373 -136 -4 0 -132 41 -282 92 -310 104 -344 123 -344 193 0 27 5 38 18 41 9
3 27 23 40 45 28 48 39 50 34 6z m-979 -109 c-22 -40 -45 -74 -51 -74 -38 -4
-37 -4 -25 -12 9 -6 -2 -20 -35 -47 -37 -31 -44 -34 -31 -15 8 14 32 54 53 88
25 42 41 60 46 52 6 -9 10 -7 14 8 4 11 5 24 4 29 -4 12 56 64 60 52 2 -5 -14
-42 -35 -81z m967 -172 c25 -12 97 -50 160 -83 63 -33 159 -78 212 -98 109
-43 125 -66 20 -31 -105 37 -208 85 -322 152 -58 34 -118 69 -135 78 -27 15
-27 16 -5 11 14 -4 45 -17 70 -29z m-1231 -182 l56 -53 -32 -32 -33 -33 -32
30 c-37 35 -92 74 -104 74 -4 0 20 -25 54 -56 34 -31 62 -60 62 -66 0 -6 -22
-40 -49 -77 -27 -36 -56 -80 -64 -97 -23 -45 -72 -59 -97 -29 -9 11 -7 21 13
47 14 18 28 45 32 59 9 38 -18 85 -58 100 l-33 11 30 32 c16 17 53 66 83 109
l55 77 30 -21 c17 -12 56 -46 87 -75z m2163 -125 c18 -61 6 -83 -58 -109 -43
-18 -60 -31 -70 -54 -11 -27 -11 -33 3 -43 9 -7 20 -10 25 -7 13 8 82 -6 73
-14 -13 -13 -105 -8 -105 6 0 9 -7 11 -20 7 -22 -7 -60 10 -60 27 0 7 13 9 35
5 40 -7 44 2 15 28 -29 26 -25 32 23 41 23 4 34 9 24 12 -10 2 -31 -1 -47 -7
-26 -8 -34 -7 -56 13 l-27 22 35 -4 c31 -3 42 2 81 40 36 34 48 53 53 86 l7
43 29 -28 c15 -15 33 -44 40 -64z m187 -30 c84 -45 86 -63 15 -155 -41 -54
-54 -99 -54 -185 0 -97 -27 -134 -176 -236 -124 -87 -164 -101 -184 -64 -16
32 -12 84 13 131 30 61 82 85 205 94 59 5 92 4 92 -3 0 -11 -126 -126 -189
-173 -24 -17 -59 -37 -79 -44 -33 -12 -34 -13 -11 -14 36 0 132 65 229 157
l80 75 0 70 c0 64 22 169 40 193 19 25 30 83 21 106 -9 22 -10 20 -11 -16 0
-22 -3 -51 -7 -65 -5 -20 -9 -12 -19 42 -21 111 -74 164 -74 73 0 -46 -22 -78
-63 -91 -32 -10 -33 6 -2 31 28 21 30 28 29 83 l-1 60 43 -18 c24 -11 70 -33
103 -51z m-2726 13 c10 -10 39 -29 67 -42 51 -24 64 -39 53 -65 -5 -14 -7 -14
-23 0 -16 15 -20 13 -44 -15 -14 -17 -26 -40 -26 -50 0 -25 -17 -34 -28 -15
-4 9 -26 22 -46 29 l-38 13 23 17 c13 9 28 16 34 16 5 0 1 -6 -10 -12 -19 -11
-17 -13 15 -19 19 -4 39 -4 44 1 11 11 -30 141 -47 152 -8 5 -8 8 -1 8 6 0 18
-8 27 -18z m-8 -54 c18 -61 17 -58 6 -58 -22 0 -41 34 -41 71 0 55 16 49 35
-13z m2845 -28 c17 -32 -4 -88 -70 -189 -33 -50 -62 -91 -65 -91 -15 0 11 99
34 128 47 61 71 107 71 140 0 36 14 42 30 12z m-371 -75 c-37 -39 -41 -41 -33
-20 4 8 11 15 17 15 6 0 7 3 4 7 -9 9 12 33 30 33 9 0 3 -13 -18 -35z m-2379
0 c13 -14 21 -25 18 -25 -2 0 -15 11 -28 25 -13 14 -21 25 -18 25 2 0 15 -11
28 -25z m-122 -25 c24 -22 27 -35 13 -45 -6 -3 -15 4 -21 15 -6 11 -8 20 -4
20 4 0 5 2 2 5 -3 3 -17 0 -31 -6 -14 -6 -34 -8 -44 -4 -16 6 -14 9 12 21 41
18 48 17 73 -6z m-93 -30 c8 -13 -25 -13 -45 0 -12 8 -9 10 12 10 15 0 30 -4
33 -10z m2761 -52 c-10 -34 -27 -65 -50 -87 -19 -18 -32 -40 -29 -47 4 -10 -3
-14 -23 -14 -25 1 -27 3 -14 13 27 21 88 111 105 155 24 58 30 46 11 -20z
m-2699 45 c-4 -3 -2 -12 4 -19 7 -8 6 -14 -2 -20 -7 -4 -17 0 -25 10 -11 16
-13 16 -19 -4 -4 -12 -9 -19 -11 -17 -11 11 21 57 39 57 11 0 17 -3 14 -7z
m-115 -38 c41 -17 78 -59 64 -72 -2 -2 -25 3 -50 11 -65 22 -80 20 -28 -4 25
-11 42 -25 40 -32 -13 -43 -180 -71 -277 -48 -28 6 -51 15 -51 19 0 11 39 44
87 75 42 28 153 77 163 73 3 -1 27 -11 52 -22z m33 14 c11 -17 2 -18 -25 -4
-24 14 -24 14 -3 15 12 0 25 -5 28 -11z m2565 -36 c-4 -75 -4 -75 31 -68 42
10 35 -16 -9 -30 -46 -16 -52 -29 -9 -21 54 10 49 -15 -8 -36 -40 -15 -63 -10
-34 7 5 4 8 12 6 18 -2 7 2 20 11 30 8 9 11 17 6 17 -5 0 -9 12 -8 28 0 15 2
44 2 65 1 20 5 37 8 37 3 0 5 -21 4 -47z m59 41 c17 -4 31 -11 31 -16 0 -14
-73 -5 -78 10 -4 14 3 15 47 6z m-2237 -41 c-14 -26 -62 -69 -62 -55 0 14 61
85 67 78 3 -2 0 -13 -5 -23z m2229 -8 c0 -5 -9 -11 -21 -13 -20 -3 -27 8 -13
22 10 9 34 3 34 -9z m-2399 -25 c-33 -27 -208 -120 -227 -120 -9 0 12 15 47
34 35 18 92 50 128 70 73 40 85 44 52 16z m2408 -10 c0 -5 -4 -10 -9 -10 -5 0
-16 -3 -25 -6 -11 -4 -16 -1 -16 10 0 10 9 16 25 16 14 0 25 -4 25 -10z
m-2244 -75 c-9 -14 -30 -32 -47 -40 -36 -19 -150 -45 -199 -45 -34 0 -34 0
-12 16 12 8 59 23 104 34 95 21 77 26 -24 6 -39 -7 -83 -24 -105 -39 -53 -37
-99 -54 -165 -62 -68 -8 -112 4 -165 47 -21 17 -56 39 -78 49 -22 10 -32 19
-22 19 25 0 88 -33 111 -59 13 -14 31 -21 55 -21 50 0 163 25 200 44 17 9 82
25 145 36 127 21 191 43 202 68 6 14 8 13 12 -6 2 -13 -4 -34 -12 -47z"/>
<path d="M2757 4677 c-4 -10 -7 -26 -7 -35 1 -15 2 -15 11 1 6 10 9 25 7 35
-3 16 -4 15 -11 -1z"/>
<path d="M2170 4075 c0 -5 10 -21 21 -35 13 -17 17 -18 10 -5 -17 33 -31 51
-31 40z"/>
<path d="M2304 4216 c-6 -26 11 -60 26 -51 17 11 17 45 -1 61 -17 15 -18 15
-25 -10z"/>
<path d="M2346 4178 c-9 -35 -7 -41 8 -29 11 9 15 6 20 -15 l7 -27 16 22 c14
21 13 24 -8 47 -28 30 -35 30 -43 2z"/>
<path d="M2314 4120 c3 -47 18 -54 30 -15 4 14 0 24 -13 32 -17 11 -19 9 -17
-17z"/>
<path d="M3176 3970 c-116 -90 -144 -119 -40 -44 108 79 151 114 139 113 -5
-1 -50 -32 -99 -69z"/>
<path d="M3340 3729 c-22 -18 -22 -19 -3 -10 12 6 25 16 28 21 9 15 3 12 -25
-11z"/>
<path d="M3254 3548 l-19 -23 23 19 c12 11 22 21 22 23 0 8 -8 2 -26 -19z"/>
<path d="M3028 3413 c6 -2 18 -2 25 0 6 3 1 5 -13 5 -14 0 -19 -2 -12 -5z"/>
<path d="M2948 3403 c7 -3 16 -2 19 1 4 3 -2 6 -13 5 -11 0 -14 -3 -6 -6z"/>
<path d="M3532 3293 c-42 -89 -75 -174 -69 -179 1 -2 29 56 60 128 31 72 55
133 54 135 -2 2 -22 -36 -45 -84z"/>
<path d="M2195 3300 c-3 -5 -1 -10 6 -10 8 0 7 -5 -2 -17 -11 -13 -7 -12 16 3
17 12 37 24 45 27 8 3 -2 6 -22 6 -20 1 -40 -3 -43 -9z"/>
<path d="M3007 2987 c70 -81 114 -111 181 -121 52 -8 49 7 -6 24 -51 17 -117
55 -166 99 l-41 36 32 -38z"/>
<path d="M2971 2923 c10 -31 17 -58 16 -60 -2 -2 -30 11 -63 28 l-59 31 25
-27 c14 -15 42 -36 62 -46 38 -19 122 -26 132 -10 3 5 -12 20 -34 35 -22 14
-52 44 -66 66 -15 22 -28 40 -30 40 -2 0 6 -25 17 -57z"/>
<path d="M3049 2633 c-13 -16 -12 -17 4 -4 16 13 21 21 13 21 -2 0 -10 -8 -17
-17z"/>
<path d="M3119 2605 c-45 -32 -97 -90 -135 -149 -10 -16 15 5 56 46 41 41 90
86 109 100 18 14 29 28 24 31 -4 3 -29 -10 -54 -28z"/>
<path d="M3240 2508 c-116 -49 -300 -149 -342 -186 -27 -25 -47 -46 -45 -49 3
-2 42 20 88 50 46 30 139 85 207 122 67 37 122 69 122 71 0 5 1 5 -30 -8z"/>
<path d="M3197 2265 c-88 -26 -170 -56 -165 -60 8 -8 248 70 248 80 0 3 -1 5
-2 4 -2 -1 -38 -11 -81 -24z"/>
<path d="M3082 2136 c-88 -31 -118 -46 -94 -46 19 0 166 50 192 65 41 24 1 16
-98 -19z"/>
<path d="M3008 1934 c-27 -13 -48 -27 -48 -29 0 -3 23 6 50 20 28 14 50 28 50
30 0 7 1 7 -52 -21z"/>
<path d="M3511 934 c-12 -20 -19 -39 -16 -43 8 -7 65 54 65 69 0 23 -30 7 -49
-26z"/>
<path d="M1650 940 c0 -19 32 -60 46 -60 21 0 17 24 -9 48 -25 24 -37 28 -37
12z"/>
<path d="M3770 305 c-23 -32 -51 -66 -61 -76 -11 -11 -15 -19 -11 -19 19 0
129 136 119 146 -3 3 -24 -20 -47 -51z"/>
<path d="M990 460 c8 -5 22 -9 30 -9 10 0 8 3 -5 9 -27 12 -43 12 -25 0z"/>
<path d="M1053 443 c9 -2 23 -2 30 0 6 3 -1 5 -18 5 -16 0 -22 -2 -12 -5z"/>
<path d="M1508 393 c7 -3 16 -2 19 1 4 3 -2 6 -13 5 -11 0 -14 -3 -6 -6z"/>
<path d="M1063 293 c9 -2 25 -2 35 0 9 3 1 5 -18 5 -19 0 -27 -2 -17 -5z"/>
<path d="M3423 4417 c3 -8 -3 -20 -14 -28 -27 -19 -24 -25 17 -24 23 0 41 7
49 19 19 26 8 46 -27 46 -21 0 -29 -4 -25 -13z m51 -6 c3 -4 -3 -16 -13 -25
-17 -16 -18 -15 -14 9 5 25 17 32 27 16z"/>
</g>
</svg>